<?xml version="1.0" encoding="utf-8"?>
<!-- Generator: Adobe Illustrator 21.0.0, SVG Export Plug-In . SVG Version: 6.00 Build 0)  -->
<svg version="1.1" id="Layer_1" xmlns="http://www.w3.org/2000/svg" xmlns:xlink="http://www.w3.org/1999/xlink" x="0px" y="0px"
	 viewBox="0 0 609.5 107.3" style="enable-background:new 0 0 609.5 107.3;" xml:space="preserve">
<style type="text/css">
	.st0{fill:#6FAC2F;}
</style>
<title>logo_xmas_au</title>
<g>
	<g id="Layer_2">
		<path class="st0" d="M587.5,42.6c1.5-0.8,3.2-1.3,4.9-1.2c1.5-0.1,2.9,0.2,4.2,0.9c1,0.6,1.8,1.5,2.4,2.5c0.6,1,1.3,1.9,2.2,2.8
			c0.7,0.6,1.6,1,2.6,0.9c1.3,0.1,2.6-0.4,3.6-1.2c0.9-0.8,1.5-1.8,1.7-3s-0.1-2.4-0.6-3.4c-0.7-1.3-1.6-2.3-2.8-3.2
			c-1.5-1.1-3.2-1.8-5-2.3c-2.3-0.6-4.7-0.9-7.2-0.9c-3.1-0.1-6.2,0.5-9.1,1.7c-2.4,1-4.6,2.5-6.2,4.5c-1.5,1.7-2.4,3.8-2.8,6
			c-0.4,2.1-0.1,4.2,1.1,6c1.2,1.7,2.9,3.1,4.8,3.9c2.7,1.2,5.5,2.1,8.3,2.8c2.3,0.5,4.5,1.3,6.5,2.4c1.3,0.9,1.8,2.5,1.5,4
			c-0.3,1.4-1.3,2.6-2.6,3.2c-1.6,1-3.5,1.5-5.4,1.4c-2.1,0.1-4.1-0.4-5.9-1.4c-1.4-1.1-2.6-2.5-3.2-4.2c-0.3-0.8-0.8-1.6-1.3-2.3
			c-0.7-0.6-1.5-0.9-2.4-0.8c-1.2,0-2.4,0.4-3.3,1.2c-0.9,0.8-1.5,1.8-1.7,3c-0.3,1.8,0.1,3.7,1.1,5.2c1.3,1.9,3.1,3.5,5.3,4.3
			c3,1.2,6.2,1.8,9.4,1.7c3.5,0.1,7-0.5,10.3-1.6c2.7-0.9,5.1-2.5,7-4.7c1.8-2.1,2.9-4.7,3.3-7.5c0.3-1.8,0.1-3.6-0.8-5.2
			c-1-1.6-2.4-3-4.1-3.9c-2.4-1.3-4.9-2.2-7.5-2.8c-2.6-0.7-4.7-1.2-6.2-1.7c-1.3-0.3-2.4-0.9-3.4-1.8c-0.8-0.7-1.2-1.7-1-2.7
			C585.5,44.3,586.3,43.2,587.5,42.6 M565.3,36.5c-2.1-1.3-4.6-1.9-7.1-1.8c-2.7,0-5.4,0.6-7.8,1.7c-2.6,1.3-5,3.2-6.9,5.4l0.2-1.3
			c0.2-1.1,0.2-2.2-0.2-3.2c-0.2-0.8-0.8-1.5-1.5-2s-1.5-0.7-2.4-0.7c-1.4,0-2.8,0.5-3.8,1.5c-1.1,1.2-1.8,2.8-2,4.5L529,71
			c-0.4,1.6-0.2,3.3,0.7,4.7c0.8,1.1,2.1,1.7,3.5,1.7c1.5,0,3-0.5,4.1-1.6c1.3-1.3,2.1-3,2.3-4.8l2.1-13.2c0.7-4.3,1.4-7.2,2.2-8.8
			c0.9-1.9,2.4-3.5,4.1-4.6c1.6-1.1,3.4-1.7,5.4-1.7c2.8,0,4.6,0.9,5.3,2.8s0.7,4.5,0.2,8l-3,17.5c-0.4,1.6-0.1,3.3,0.7,4.7
			c0.8,1.1,2.2,1.7,3.5,1.7c1.5,0,2.9-0.6,4-1.6c1.2-1.3,2-3,2.2-4.8l3.1-19.6c0.3-1.9,0.5-3.8,0.6-5.7c0-1.4-0.2-2.8-0.7-4.2
			C568.7,39.4,567.3,37.6,565.3,36.5 M521.9,34.6c-1.5,0-2.9,0.6-4,1.6c-1.2,1.3-2,2.9-2.2,4.7l-5,30.1c-0.4,1.6-0.2,3.3,0.7,4.7
			c0.8,1.1,2.1,1.7,3.5,1.7c1.5,0,3-0.6,4.1-1.6c1.3-1.3,2.1-3,2.3-4.8l5-30.4c0.4-1.5,0.1-3.1-0.8-4.4
			C524.6,35.2,523.3,34.6,521.9,34.6 M524.5,20.5c-1.4,0-2.8,0.5-4,1.5c-1.2,0.9-2,2.2-2.2,3.7c-0.3,1.3,0,2.8,0.9,3.8
			c0.9,0.9,2.2,1.4,3.5,1.4c1.4,0,2.8-0.5,3.9-1.4c1.2-0.9,2-2.3,2.2-3.8c0.4-1.3,0-2.8-1-3.8C526.9,21,525.7,20.5,524.5,20.5
			 M494.3,57.8c-0.6,3.7-1.5,6.3-2.7,7.9c-1.2,1.5-2.7,2.7-4.4,3.5c-1.9,0.9-3.9,1.4-6,1.4c-1.7,0.1-3.3-0.5-4.5-1.7
			c-1-1.1-1.4-2.6-1.1-4.1c0.2-1.4,1-2.7,2.1-3.6c1-0.8,2.2-1.4,3.5-1.7c1.2-0.3,3.3-0.8,6.3-1.4c2.4-0.5,4.7-1.1,7-1.8L494.3,57.8z
			 M501,36.2c-2.4-1.1-6-1.6-10.6-1.6c-3.6-0.1-7.2,0.5-10.6,1.7c-2.6,0.9-4.9,2.4-6.9,4.3c-1.5,1.5-2.5,3.4-2.9,5.4
			c-0.2,1,0.1,2.1,0.8,2.9c1.5,1.3,3.8,1.5,5.5,0.4c0.5-0.5,1.3-1.5,2.5-2.9c1.1-1.4,2.5-2.5,4-3.4c1.9-0.8,4.1-1.2,6.2-1.1
			c3.1,0,5,0.7,5.8,2s1,3.3,0.6,6.1c-2.3,0.6-4.4,1.2-6.4,1.6s-4.3,0.9-7,1.5s-4.4,0.9-5.1,1c-3,0.6-5.9,2-8.2,4.1
			c-2.1,1.9-3.5,4.5-4,7.4c-0.4,2-0.1,4.1,0.7,5.9c0.8,1.9,2.2,3.4,4,4.3c2.1,1.1,4.4,1.7,6.8,1.6c2.8,0,5.6-0.5,8.2-1.5
			c2.9-1.2,5.6-2.7,8.1-4.4c0.7,1.6,1.5,3.1,2.6,4.4c0.7,0.9,1.8,1.5,2.9,1.5c1.3,0,2.6-0.5,3.7-1.3c1-0.7,1.8-1.8,2-3
			c0.1-1.4,0-2.8-0.3-4.1c-0.3-2-0.3-4.1,0-6.2c0.4-2.1,0.7-4,1-5.8s0.6-3.8,1-6.3c0.7-3.9,0.6-7-0.1-9.4
			C505,39,503.3,37.1,501,36.2 M458.7,36.4c-2.2-1.2-4.6-1.8-7.1-1.7c-2.4,0-4.8,0.5-7,1.6c-2.4,1.2-4.6,2.8-6.5,4.8
			c-0.7-2-2.1-3.6-3.9-4.8c-2-1.1-4.2-1.7-6.5-1.6c-2.5,0-4.9,0.5-7.2,1.5c-2.5,1.2-4.7,2.8-6.7,4.8l0.2-1c0.4-1.4,0.1-2.8-0.7-4
			c-0.8-1-2.1-1.5-3.4-1.4c-1.4,0-2.8,0.5-3.9,1.5c-1.2,1.2-1.9,2.8-2.1,4.5l-5.2,30.1c-0.4,2.2-0.2,3.8,0.7,4.9
			c0.8,1.1,2.2,1.8,3.6,1.7c1.6,0,3.1-0.6,4.2-1.7c1.3-1.3,2.1-3.1,2.3-4.9l2.5-14.2c0.5-3.6,1.6-7,3.4-10.2c1.5-2.4,4-3.5,7.4-3.5
			c1.7,0,2.9,0.5,3.5,1.4c0.7,1.1,0.9,2.3,0.8,3.6c-0.1,2.1-0.4,4.1-0.7,6.1l-2.9,16.8c-0.4,2.2-0.2,3.9,0.6,5
			c0.8,1.1,2.2,1.7,3.6,1.7c1.6,0,3.1-0.6,4.3-1.7c1.3-1.4,2.2-3.1,2.4-5l2.4-14c0.8-4.5,1.7-7.6,2.8-9.4c0.9-1.3,2.1-2.5,3.5-3.3
			c1.2-0.7,2.6-1.2,4-1.2c1.4-0.1,2.7,0.4,3.6,1.4c0.7,1,1.1,2.2,1,3.4c-0.1,1.8-0.3,3.6-0.6,5.4l-3,17.7c-0.4,2.2-0.1,3.8,0.7,4.9
			c0.8,1.1,2.2,1.8,3.6,1.7c1.6,0,3.1-0.6,4.2-1.7c1.3-1.4,2.1-3.1,2.3-5l3.5-20.5c0.7-4.1,0.7-7.1,0.2-9
			C461.9,39.2,460.5,37.4,458.7,36.4 M385.4,56c-0.8,4.2-2.2,7.6-4.6,10c-2.1,2.3-5.1,3.6-8.2,3.6c-1.9,0.1-3.7-0.5-5.2-1.6
			c-1.4-1.2-2.4-2.9-2.7-4.7c-0.5-2.4-0.5-4.8,0-7.2c0.4-2.6,1.3-5,2.5-7.3c1.1-1.9,2.6-3.6,4.5-4.8c1.7-1.1,3.7-1.6,5.7-1.6
			c3.2,0,5.5,1.2,6.9,3.6C385.8,48.4,386.1,51.7,385.4,56 M393,40.6c-1.6-1.9-3.6-3.4-5.9-4.4c-2.6-1.1-5.5-1.6-8.3-1.5
			c-3,0-6,0.5-8.8,1.5c-2.7,1-5.2,2.4-7.4,4.3c-2.2,1.9-4,4.2-5.4,6.8c-1.5,2.7-2.5,5.7-3,8.8c-0.6,2.9-0.6,5.8-0.1,8.7
			c0.4,2.5,1.5,4.8,3,6.8c1.6,1.9,3.6,3.4,5.8,4.4c2.6,1.1,5.5,1.6,8.3,1.5c3,0,6-0.5,8.9-1.5c2.7-1,5.2-2.5,7.4-4.4
			c2.2-1.9,4-4.2,5.4-6.8c1.5-2.7,2.5-5.6,3-8.7c0.6-2.9,0.6-5.8,0.1-8.7C395.6,44.9,394.6,42.6,393,40.6 M337.9,56
			c-0.4,2.6-1.3,5.2-2.7,7.5c-1.1,1.8-2.6,3.3-4.5,4.4c-1.6,0.9-3.4,1.4-5.3,1.4c-1.7,0-3.4-0.5-4.8-1.5c-1.4-1.1-2.4-2.7-2.8-4.5
			c-0.5-2.4-0.5-4.9,0-7.3c0.4-2.5,1.3-4.9,2.5-7.1c1.1-1.9,2.6-3.5,4.4-4.7c1.6-1.1,3.5-1.6,5.4-1.6c1.7,0,3.4,0.5,4.8,1.6
			c1.4,1.2,2.4,2.8,2.9,4.6C338.4,51.1,338.4,53.6,337.9,56 M350,19c-1.5-0.1-3,0.6-4,1.7c-1.2,1.4-1.9,3.1-2.2,4.9L341,41.1
			c-1.4-2-3.1-3.6-5.2-4.8c-2.3-1.1-4.8-1.7-7.3-1.6c-5.1,0-9.9,2-13.5,5.5c-3.9,3.7-6.4,8.8-7.6,15.3c-0.6,2.9-0.7,5.8-0.4,8.7
			c0.3,2.5,1,4.9,2.3,7c1.1,1.9,2.8,3.5,4.7,4.6c2.1,1.1,4.4,1.6,6.7,1.6c1.8,0,3.6-0.3,5.4-0.8c1.7-0.5,3.4-1.3,4.9-2.3
			c1.7-1.2,3.4-2.5,4.9-3.9l-0.2,1c-0.4,1.5-0.2,3.1,0.6,4.4c0.8,1,2,1.6,3.3,1.6c1.4,0,2.8-0.5,3.8-1.5c1.2-1.2,2-2.8,2.2-4.5
			l8.3-46.4c0.4-1.5,0.2-3.1-0.5-4.5C352.6,19.4,351.3,18.9,350,19"/>
		<path class="st0" d="M294,101c-1.8,0.1-3.3,1.4-3.6,3.1c-0.3,1.4,0.6,2.8,2.1,3.1c0.2,0,0.4,0.1,0.6,0c1.8-0.1,3.3-1.4,3.6-3.1
			c0.3-1.4-0.6-2.8-2.1-3.1C294.4,101,294.2,101,294,101z"/>
		<path class="st0" d="M311.2,90.9c4,0,2.5,3.3,5.2,3.3c1.5,0.1,2.8-1,3-2.4c0.4-2.6-2.7-5.2-7.3-5.2c-6.9,0-11.2,4.5-12.2,10.9
			c-0.9,5.9,1.6,10.1,8.5,10.1c5.8,0,9-3.4,9.4-5.8c0.2-1-0.5-2-1.5-2.1c-0.2,0-0.3,0-0.5,0c-3,0-2.7,3.6-6.6,3.6
			c-3.1,0-4.4-2.3-3.8-5.8C306.2,92.4,309,90.9,311.2,90.9z"/>
		<path class="st0" d="M330.9,86.5c-6.8,0-11.1,4.6-12,10.5c-0.9,5.6,1,10.5,8.7,10.5s11.1-4.9,12-10.5
			C340.5,91.1,337.7,86.5,330.9,86.5z M334,97c-0.5,3.4-2.4,6.4-5.8,6.4s-4.3-3-3.7-6.4c0.6-3.6,2.5-6.4,5.8-6.4S334.6,93.4,334,97z
			"/>
		<path class="st0" d="M367.1,86.5c-2.8,0-5.4,1.3-7.1,3.5c-0.5-2.2-2.6-3.7-4.8-3.5c-2.8,0-5.5,1.3-7.3,3.5h-0.1l0.1-0.7
			c0.3-1.7-0.5-2.8-2.2-2.8c-1.6,0-2.9,1.2-3.1,2.8l-2.5,15.4c-0.2,1.5,0.2,2.8,2.4,2.8c1.7,0.1,3.1-1.1,3.2-2.7c0,0,0,0,0-0.1
			l1.5-9.3c0.3-2.4,2.3-4.2,4.8-4.3c2.2,0,2.8,1.6,2.5,3.6l-1.6,10c-0.2,1.5,0.2,2.8,2.4,2.8c1.7,0.1,3.1-1.1,3.2-2.7c0,0,0,0,0-0.1
			l1.5-9.3c0.3-2.4,2.3-4.2,4.8-4.3c2.2,0,2.8,1.6,2.5,3.6l-1.6,10c-0.2,1.5,0.2,2.8,2.4,2.8c1.7,0.1,3.1-1.1,3.2-2.7c0,0,0,0,0-0.1
			l1.8-11.4C373.8,88.3,371,86.5,367.1,86.5z"/>
		<path class="st0" d="M378.1,101c-1.8,0.1-3.3,1.4-3.6,3.1c-0.3,1.4,0.6,2.8,2.1,3.1c0.2,0,0.4,0.1,0.6,0c1.8-0.1,3.3-1.4,3.6-3.1
			c0.3-1.4-0.6-2.8-2.1-3.1C378.5,101,378.3,101,378.1,101z"/>
		<path class="st0" d="M396.2,86.5c-5.8,0-9.3,2.8-9.7,5.1c-0.2,1,0.5,2,1.6,2.1c0.1,0,0.3,0,0.4,0c2.2,0,2.8-3.1,7-3.1
			c1.9,0,3.4,0.7,3.2,2.3s-1.4,1.9-2.7,2.1l-3.5,0.4c-4.4,0.5-8.1,1.8-8.8,6.4c-0.6,3.5,2.2,5.7,5.4,5.7c3.1,0.1,6-1.1,8.2-3.3
			c-0.2,1.7,0.4,3.3,2.8,3.3c1.3,0.1,2.5-0.8,2.9-2.2c0.1-0.9-0.4-1.4,0-3.8l1.5-9.4C405,88.2,401.5,86.5,396.2,86.5z M397.6,99.8
			c-0.3,2.1-2.5,4.1-5.6,4.1c-1.9,0-2.9-1-2.7-2.3c0.3-1.7,1.6-2.4,4-2.8l2.1-0.3c0.9-0.1,1.8-0.4,2.6-0.9L397.6,99.8z"/>
		<path class="st0" d="M424.5,86.5c-1.7-0.1-3.1,1.1-3.2,2.7c0,0,0,0,0,0.1l-1.5,9.2c-0.4,2.5-2.5,4.3-5,4.4c-2.4,0-3.3-1.6-2.9-3.9
			l1.5-9.8c0.2-1.5-0.2-2.8-2.4-2.8c-1.7-0.1-3.1,1.1-3.2,2.7c0,0,0,0,0,0.1l-1.7,10.9c-0.9,5.7,2.5,7.4,5.9,7.4
			c2.8,0,5.5-1.3,7.3-3.5h0.1l-0.1,0.7c-0.3,1.7,0.3,2.8,2.1,2.8s2.7-1.1,3-2.8l2.5-15.4C427.1,87.8,426.7,86.5,424.5,86.5z"/>
	</g>
</g>
<g>
	<path class="st0" d="M303.4,14c-0.6,0.1-15.4,2-23.1,3.1l-3.9,0.5l-0.2,0.5c0,0-0.4,1.3-1.1,3.3l-0.2,0c-0.1,0-21.2,1.9-28,3.1
		l1-4.5l1.9-8.1l-8.3,0.9l-50.8,5.5l-4.7,0.5l-0.5,4.7l-0.4,3.1c-4.9-10.8-15.8-13-19.8-13.9c-2.7-0.5-5.5-0.8-8.3-0.8
		c-3.8,0-7.1,0.5-9.6,1l0.2-0.5l-9,0.3c-5,0.2-10.2,1.5-15,3.2l0.3-1l0.4-1.3l-9,1l-24.3,2.8L79.6,52.2L56.2,51l-4.5-0.2l-1.4,4.3
		c-1.4,4.1-4,6.2-8.5,6.5l-0.6,0c-1.8-0.1-1.8-0.4-2-0.6c-0.4-0.5-0.9-2.1-0.9-4.4c0-2,0.3-4.5,1.1-7.6c1.7-6.3,6.5-15.6,12.2-17.7
		c0,0.9-0.1,2.1-0.4,3.9l-1.5,8.1l8.2-1.1l20.9-2.8l3.2-0.4l0.6-0.1l1.1-3.7c1.1-3.8,1.7-7.3,1.7-10.6c0-5.2-1.4-9.9-4.3-13.7
		C73.9,1.7,61.9,0.8,57,0.8c-1.4,0-2.7,0.1-4,0.2C29.1,3.5,8.5,24.1,3.9,50c-0.4,2.6-0.7,5.1-0.7,7.6c0,8.6,2.7,16.5,7.9,22.7
		c6.5,7.8,16.2,12,27.2,12c1.8,0,3.6-0.1,5.5-0.3c9-1.1,17-3.9,23.5-8.1l-2.1,6.4l9.7-1.5l22.3-3.5l2.9-0.5l0.5-0.1l1.2-3.3
		l7.9-21.7c2.7-7.3,7-11.5,15-13.9c-5.2,5.9-8.2,13.4-8.3,21.3v0.2c0,4.8,1.7,9.1,4.8,12.3c4,4,10.2,6.2,17.4,6.2c0.4,0,0.8,0,1.2,0
		l-3.5,8l11.5-2.7l22.7-5.3l-0.8,5.7l7.6-0.8l48.1-5.2l4.4-0.5l0.8-4.4l3.1-28.2l-3.2-0.4l4.1-2.3c-0.7,3.3-1,6.2-1,8.8
		c-0.1,10.1,4.6,15.3,8.8,18h-2.7c-3.4,0-6.9,0-6.9,0h-1.1l4.5,28.6l0.7,0.1c0,0,9.5,1.1,12.4,1.1c6.6,0,22.9-0.9,32.2-10.7
		c7.9-8.2,12.5-21.9,17-35.2l0.6-1.7c2.7-7.8,10.3-35.9,10.6-37.1l2.3-8.6L303.4,14z M308.1,20.9c-0.3,1.2-8,29.4-10.6,37l-0.6,1.7
		c-4.5,13.2-9.2,26.8-16.6,34.5c-8.6,9.1-24.5,10.2-31,10.2c-2.1,0-9.2-0.8-11.5-1L234,78.2c1.3,0,3.6,0,5.8,0c2.8,0,5.5,0,6.2-0.1
		l3.5-0.3l-3.2-1.4c-4.4-2.1-10.8-6.2-10.8-18.1c0-2.9,0.4-6.4,1.4-10.4l0.5-2.1L225,53l6.7,0.9l-2.9,26.4l-0.5,3l-3.1,0.4
		l-48.1,5.2l-5.3,0.6l0.9-6l-2.7,0.6l-22.7,5.3l-8,1.9l3.2-7.4l-1.5,0.1c-0.8,0.1-1.7,0.1-2.6,0.1c-6.9,0-12.6-2.1-16.1-5.6
		c-2.8-2.9-4.3-6.6-4.3-11v-0.1c0.1-8.5,3.7-16.5,9.9-22.3l0.1-0.1l0.1-0.2l0.8-1.7l-1.8,0.4c-10.3,2.2-16.2,7.1-19.3,15.9
		l-7.9,21.7l-0.8,2.3l-2.4,0.4L74.6,87L67.9,88l2.9-8.8l-2.3,1.7c-6.6,4.8-15,8.1-24.9,9.3c-1.8,0.2-3.6,0.4-5.3,0.4
		c-10.6,0-19.7-4.1-25.8-11.4c-4.9-5.9-7.5-13.3-7.5-21.5c0-2.4,0.2-4.8,0.6-7.3C10.1,25.2,30.2,5.2,53.2,2.8
		c1.3-0.1,2.5-0.2,3.8-0.2c4.7,0,16.1,1,22.3,9.4c2.6,3.5,4,7.7,4,12.6c0,3.1-0.5,6.5-1.6,10.1l-0.8,2.6l-2.7,0.4l-20.9,2.8
		l-5.6,0.7l1.1-5.6c0.4-2,0.5-3.4,0.5-4.4c0-0.4,0-0.8,0-1.1l-0.1-1l-1,0.2c-7.6,1.8-12.6,12.3-14.6,19.3c-0.9,3.2-1.2,5.9-1.2,8.1
		c0,2.6,0.4,4.4,1.3,5.5c0.3,0.4,1.3,1.4,3.5,1.3h0.7c5-0.3,8.6-3.1,10.1-7.8l1-3l3.1,0.2l24.8,1.2l11.6-34.7l23.2-2.7l6.2-0.7
		l-0.4,1.4l-0.6,1.8l1.7-0.6c5.1-1.9,11-3.5,16.2-3.7l6.2-0.2l-0.4,1.1l1.7-0.4c2.5-0.7,6.4-1.4,10.8-1.4c2.7,0,5.4,0.2,8,0.7
		c4.5,1,16.3,3.4,19.8,16.3l1.8-0.1l0.8-7l0.4-3.3l3.3-0.4l50.8-5.5l5.7-0.6l-1.3,5.6l-1.7,7.3l1.5-0.4c3.3-0.9,22.6-2.8,27.8-3.2
		c-1.2,4.2-5.1,17.7-7.4,25c-0.2,0.7-0.4,1.3-0.6,1.8l-0.3,0.7l-0.3,0.8l1.6,0.8c0.2-0.4,0.3-0.6,0.4-1c0.3-0.7,0.5-1.6,0.9-2.7
		c2.6-7.8,8.5-26.2,9.6-29.6l2.8-0.4c7.7-1.1,22.9-3.1,23-3.1l-0.1-0.9l0.1,0.9l6.1-0.8L308.1,20.9z"/>
	<path class="st0" d="M183.7,54.5l6.3-4.1l-0.6-1.6l-5.9,1.1l-0.2,0.5c-0.3,1-0.6,2-0.9,3.1l-0.7,2.4L183.7,54.5z M184.8,51.4
		l0.4-0.1l-0.4,0.3L184.8,51.4z"/>
	<path class="st0" d="M55.9,57c-1.7,5.1-5.8,10-13.8,10.6c-10.6,0.7-11.3-9.9-8.6-20.1c2.1-7.5,8.3-21.1,18.9-22.4
		c4.9-0.6,5.6,4.5,4.4,11.3l20.9-2.8c6.8-23-12.3-27.9-24.1-26.7C30.9,9.3,13.6,29.3,9.8,51C6,72.8,21.3,88.8,43.2,86.1
		c16.5-2,31.6-10.6,36.3-27.9L55.9,57z"/>
	<path class="st0" d="M138.9,18.9c-7.8,0.3-17.7,4.3-24.7,7.8l1.9-5.9l-22.2,2.4L73.9,82.9l22.3-3.5l7.9-21.7
		c3.9-10.8,11.5-17.2,27.2-19.3L138.9,18.9z"/>
	<path class="st0" d="M164.3,18.7c-10.9-2.1-19.8,1.4-19.8,1.4l-7.8,16.5c0,0,15.4-5.8,22.1-2.8c3,1.4,2,3.3,1.8,5.8
		c-5.3-1-14-1-22.5,3.3c-9.1,4.6-15.6,13.5-15.7,24.3c-0.1,13.9,18.1,14.5,27.5,10.5c-1.2,2.7-3.3,7.6-3.3,7.6l22.7-5.3
		c0,0,12.5-35.9,12.5-40.9C181.8,23.1,171,20.1,164.3,18.7z M153.5,65.6c-3.8,0.5-8.6-0.6-7.6-5.4c1.5-6.9,6.8-9.8,12.6-8.4
		C158,53.3,155,62.2,153.5,65.6z"/>
	<path class="st0" d="M271.5,52.4c-2.7,8-11,5.2-10.5,0.8c0.9-9.3,4.5-17.7,7.2-25.8c-2.9,0-19.5,2.6-21.2,3.2
		c-2.9,7.4-8.6,23.2-7.2,29.2c2.9,12.6,9.4,15.9,24.2,13.8c-3.4,6.7-12.5,9.2-25.3,8.7c0,0,3.8,15.7,3.7,17.4c9.7,1.3,26.9,0,35-8.5
		c7.2-7.4,11.7-21.4,16.3-34.7c2.6-7.6,10.5-36.7,10.5-36.7s-15.1,2-23,3C278.7,32.4,274.7,42.7,271.5,52.4z"/>
	<polygon class="st0" points="191.5,24.2 189.2,44.6 213.2,40.3 180.1,61.7 176.7,84.8 224.8,79.6 228.6,57.5 200.8,62.3 
		237.1,41.3 242.3,18.8 	"/>
</g>
</svg>
