<?xml version="1.0" standalone="no"?>
<!DOCTYPE svg PUBLIC "-//W3C//DTD SVG 20010904//EN"
 "http://www.w3.org/TR/2001/REC-SVG-20010904/DTD/svg10.dtd">
<svg version="1.0" xmlns="http://www.w3.org/2000/svg"
 width="2480.000000pt" height="3508.000000pt" viewBox="0 0 2480.000000 3508.000000"
 preserveAspectRatio="xMidYMid meet">
<metadata>
Created by potrace 1.15, written by Peter Selinger 2001-2017
</metadata>
<g transform="translate(0.000000,3508.000000) scale(0.100000,-0.100000)"
fill="#000000" stroke="none">
<path d="M12015 27574 c-1185 -55 -2223 -279 -3344 -719 -473 -186 -1080 -496
-1586 -810 -865 -537 -1689 -1257 -2376 -2075 -196 -234 -302 -374 -627 -835
-231 -327 -594 -981 -807 -1454 -502 -1115 -777 -2199 -872 -3441 -24 -309
-24 -1100 0 -1412 82 -1071 315 -2088 692 -3013 365 -899 754 -1585 1344
-2370 687 -916 1635 -1783 2625 -2402 575 -359 1041 -598 1600 -819 1026 -408
1910 -611 3086 -711 294 -25 1061 -25 1350 0 1173 101 2035 298 3059 699 1193
467 2363 1231 3304 2158 1102 1083 1932 2388 2438 3830 260 741 424 1463 509
2240 46 429 55 605 54 1110 0 497 -11 714 -59 1130 -201 1780 -887 3493 -1969
4920 -176 232 -405 506 -602 720 -167 181 -522 534 -679 676 -428 387 -891
736 -1390 1051 -454 286 -1114 622 -1586 808 -1015 400 -1972 621 -3030 700
-203 15 -944 27 -1134 19z m1015 -490 c1306 -84 2535 -417 3695 -1001 1052
-530 1957 -1215 2771 -2098 646 -701 1276 -1656 1646 -2495 429 -975 671
-1848 793 -2865 39 -333 56 -656 56 -1090 0 -981 -114 -1771 -398 -2745 -190
-653 -509 -1398 -858 -1999 -658 -1137 -1463 -2056 -2505 -2861 -424 -327
-999 -688 -1495 -938 -465 -234 -1114 -492 -1580 -626 -724 -209 -1420 -335
-2090 -378 -265 -17 -1003 -17 -1270 0 -687 44 -1417 177 -2140 390 -466 138
-1071 380 -1555 622 -453 227 -1068 613 -1477 928 -814 627 -1500 1344 -2058
2151 -739 1070 -1249 2256 -1510 3516 -201 972 -248 1930 -144 2965 38 385
139 945 240 1338 426 1651 1255 3124 2448 4345 705 722 1605 1379 2506 1830
271 135 537 256 764 346 1322 529 2746 756 4161 665z"/>
<path d="M9660 24430 c-460 -43 -877 -185 -1245 -425 -302 -197 -549 -461
-737 -790 -109 -191 -205 -426 -267 -655 -77 -282 -121 -636 -121 -965 1 -883
293 -1739 765 -2233 360 -378 771 -582 1334 -662 506 -73 989 -37 1381 101
591 209 1035 640 1299 1261 62 146 161 453 149 463 -2 1 -61 17 -133 35 -71
19 -231 59 -355 91 -124 31 -229 53 -233 49 -4 -4 -15 -36 -23 -71 -23 -99
-82 -274 -131 -386 -216 -492 -602 -810 -1122 -920 -116 -25 -145 -27 -361
-27 -206 -1 -249 2 -350 22 -242 49 -476 145 -680 282 -126 83 -303 262 -392
396 -185 275 -312 665 -368 1124 -18 143 -24 613 -11 772 26 298 103 641 196
873 122 303 318 554 577 740 213 153 510 262 803 295 119 13 417 13 530 -1
157 -18 339 -71 470 -136 332 -165 571 -459 736 -908 18 -49 35 -93 39 -97 6
-8 254 47 530 117 30 7 82 19 115 25 33 7 63 14 67 16 9 6 -30 127 -81 254
-185 456 -470 804 -853 1042 -247 153 -563 261 -904 308 -106 14 -506 21 -624
10z"/>
<path d="M14570 24285 c-450 -57 -827 -242 -1119 -551 -305 -323 -475 -788
-499 -1365 -34 -812 155 -1402 576 -1800 248 -235 512 -370 862 -443 850 -176
1698 168 2078 841 190 337 271 758 259 1341 -8 420 -64 686 -206 987 -196 415
-582 760 -1008 900 -284 94 -640 128 -943 90z m525 -574 c215 -48 403 -156
562 -323 259 -275 373 -634 373 -1179 0 -406 -55 -690 -181 -941 -82 -163
-197 -300 -343 -409 -197 -147 -399 -212 -666 -212 -318 0 -556 94 -777 306
-98 94 -148 158 -208 263 -138 241 -207 561 -208 964 -1 562 120 950 380 1216
182 186 378 288 628 329 118 19 319 13 440 -14z"/>
<path d="M12923 19163 c-10 -4 -13 -85 -13 -359 l0 -354 2710 0 2710 0 0 360
0 360 -2697 -1 c-1484 0 -2704 -3 -2710 -6z"/>
<path d="M15247 16574 c-588 -61 -1087 -288 -1497 -680 -474 -455 -730 -1024
-817 -1814 -24 -221 -24 -637 1 -825 49 -381 145 -704 307 -1032 184 -372 422
-659 744 -898 237 -175 440 -281 724 -375 457 -153 1030 -177 1510 -64 317 74
645 214 890 378 405 272 704 649 906 1146 304 744 315 1733 28 2510 -47 127
-178 394 -246 503 -325 512 -823 886 -1409 1056 -343 100 -762 135 -1141 95z
m630 -629 c336 -48 641 -184 908 -406 387 -323 638 -864 695 -1499 13 -148 13
-542 0 -690 -50 -559 -234 -1013 -541 -1334 -300 -315 -613 -481 -1039 -553
-148 -25 -493 -25 -640 0 -410 71 -717 230 -1005 521 -304 307 -482 684 -556
1176 -27 184 -37 564 -20 795 41 558 170 976 395 1284 74 100 237 261 351 346
257 192 559 318 865 360 132 18 460 18 587 0z"/>
<path d="M7505 16478 c-3 -7 -4 -1264 -3 -2793 l3 -2780 1160 0 c1150 0 1162
1 1340 23 400 51 658 125 925 264 152 79 251 151 383 278 289 277 475 584 623
1029 128 385 179 729 179 1221 0 373 -24 606 -91 910 -94 421 -269 803 -502
1091 -88 109 -293 303 -403 381 -242 174 -561 296 -894 343 -260 36 -308 37
-1513 42 -987 4 -1203 2 -1207 -9z m2415 -661 c330 -35 499 -91 701 -229 156
-106 328 -295 449 -493 140 -228 233 -540 272 -915 17 -165 17 -724 0 -894
-57 -565 -240 -1026 -526 -1324 -169 -177 -439 -305 -756 -361 -203 -36 -336
-41 -1087 -41 l-733 0 0 2141 0 2141 763 -5 c614 -3 792 -7 917 -20z"/>
</g>
</svg>
